PathFileType	4	(X/Y/Z)	TVC_26_Cal_03_0_static_RCNL2025.trc
DataRate	CameraRate	NumFrames	NumMarkers	Units	OrigDataRate	OrigDataStartFrame	OrigNumFrames
100	100	4	27	mm	100	53	420
Frame#	Time	R_Shoulder			L_Shoulder			C7			J_Notch			R_Elbow			L_Elbow			R_Wrist			L_Wrist			R_Asis			L_Asis			R_Psis			L_Psis			Sacral			Thoracic			Sternum			R_Thigh_Lateral			R_Knee_Lateral			R_Shank_Lateral			R_Ankle_Lateral			R_Heel			R_Toe			L_Thigh_Lateral			L_Knee_Lateral			L_Shank_Lateral			L_Ankle_Lateral			L_Heel			L_Toe		
		X1	Y1	Z1	X2	Y2	Z2	X3	Y3	Z3	X4	Y4	Z4	X5	Y5	Z5	X6	Y6	Z6	X7	Y7	Z7	X8	Y8	Z8	X9	Y9	Z9	X10	Y10	Z10	X11	Y11	Z11	X12	Y12	Z12	X13	Y13	Z13	X14	Y14	Z14	X15	Y15	Z15	X16	Y16	Z16	X17	Y17	Z17	X18	Y18	Z18	X19	Y19	Z19	X20	Y20	Z20	X21	Y21	Z21	X22	Y22	Z22	X23	Y23	Z23	X24	Y24	Z24	X25	Y25	Z25	X26	Y26	Z26	X27	Y27	Z27
53	0.52000000	-164.049637	1353.829346	-116.330658	-86.038025	1384.327148	-429.141510	-200.876862	1416.794312	-283.504364	-66.616280	1307.908691	-251.216507	-186.497986	1026.037109	13.732533	-91.152077	1052.207275	-521.678467	-174.403038	813.109924	40.037815	-86.996750	829.357239	-507.238190	-113.728531	958.885620	-115.776787	-40.311592	955.751465	-391.598877	-304.044250	975.135071	-249.667374	-258.432129	967.872192	-390.116333	-281.238190	971.503632	-319.891853	-273.932068	1142.077393	-324.258423	-21.981398	1073.509521	-260.701508	-221.932938	579.402527	-86.651535	-235.538589	434.230896	-134.607849	-253.997375	284.190491	-83.965462	-269.078369	76.543243	-136.158234	-312.964050	55.418243	-184.884628	-128.867813	39.847218	-150.269882	-79.848747	583.248169	-451.412598	-177.820160	416.576874	-420.915558	-161.884583	268.148743	-456.712921	-195.115555	67.765038	-389.666901	-251.110443	51.015148	-347.783630	-59.862545	39.755241	-350.446747
54	0.53000000	-163.432632	1353.635864	-116.383949	-85.686661	1384.290771	-429.120331	-200.524750	1416.914185	-283.417969	-66.307991	1307.835571	-251.163696	-186.041153	1025.800903	13.821667	-90.850761	1052.212036	-521.655701	-174.081284	813.009460	39.947548	-86.437859	829.424591	-507.163498	-112.736603	958.924805	-115.598244	-40.140690	955.686157	-391.557770	-303.897827	975.236877	-249.661453	-258.170044	967.974609	-390.227417	-281.033936	971.605743	-319.944435	-273.722443	1142.185425	-324.165497	-21.686089	1073.497803	-260.673615	-221.820236	579.444214	-86.737144	-235.385056	434.268036	-134.652206	-253.719864	284.309723	-84.061783	-269.190582	76.703888	-136.091644	-313.010101	55.544437	-185.005737	-128.826996	39.859913	-150.282990	-79.943825	583.364868	-451.751404	-177.797073	416.583038	-420.908783	-161.426422	268.388489	-456.935242	-195.118698	67.827263	-389.622070	-251.038437	51.070885	-347.848907	-60.190296	39.882240	-349.968750
55	0.54000000	-163.074478	1353.705078	-116.393044	-85.248886	1384.172607	-428.898834	-200.204483	1416.970337	-283.336578	-65.994415	1307.875122	-251.193817	-185.484344	1025.811401	13.722731	-90.541214	1052.210449	-521.624512	-173.769768	812.936829	39.938693	-85.997814	829.547638	-507.130920	-112.611115	958.816162	-115.607979	-40.002258	955.706177	-391.588562	-303.648224	975.277466	-249.728302	-257.978882	967.977600	-390.240814	-280.813553	971.627533	-319.984558	-273.477600	1142.231445	-324.214874	-21.422747	1073.439453	-260.613281	-221.719620	579.482605	-86.762215	-235.283539	434.355408	-134.757751	-254.596863	283.606995	-84.003685	-269.101929	76.658875	-136.128708	-313.020264	55.521587	-185.052002	-128.849731	39.895351	-150.261749	-79.869797	583.199158	-451.578491	-177.768112	416.562012	-420.928650	-161.307587	268.375031	-456.857269	-195.102798	67.817802	-389.670197	-250.993790	51.118900	-347.909821	-59.866737	39.779675	-350.332428
56	0.55000000	-162.690094	1353.639893	-116.368729	-85.022621	1384.359741	-429.006744	-199.879242	1416.834839	-283.234222	-65.697998	1307.841309	-251.160614	-185.172760	1025.763306	13.641892	-90.226166	1052.193115	-521.611267	-173.422501	812.917542	39.850194	-85.762180	829.625763	-507.088516	-112.023781	959.214478	-115.557304	-39.723766	955.641418	-391.535797	-303.477295	975.310364	-249.732590	-257.812286	968.027527	-390.240082	-280.644791	971.668945	-319.986336	-273.233185	1142.301636	-324.207672	-21.250235	1073.363281	-260.650146	-221.646912	579.451721	-86.849068	-235.149689	434.307098	-134.782898	-254.616837	283.658569	-84.066406	-269.077484	76.707954	-136.191544	-312.998016	55.577137	-185.080780	-128.789841	39.841507	-150.317139	-79.412056	582.854309	-451.280823	-177.787048	416.567566	-420.979797	-161.318115	268.394409	-456.899994	-195.146942	67.809898	-389.656433	-251.005890	51.180515	-347.888763	-59.885067	39.771145	-350.432037
